<?xml version="1.0" standalone="no"?>
<!DOCTYPE svg PUBLIC "-//W3C//DTD SVG 20010904//EN"
 "http://www.w3.org/TR/2001/REC-SVG-20010904/DTD/svg10.dtd">
<svg version="1.0" xmlns="http://www.w3.org/2000/svg"
 width="512.000000pt" height="512.000000pt" viewBox="0 0 512.000000 512.000000"
 preserveAspectRatio="xMidYMid meet">
<metadata>
Created by potrace 1.11, written by Peter Selinger 2001-2013
</metadata>
<g transform="translate(0.000000,512.000000) scale(0.100000,-0.100000)"
fill="#000000" stroke="none">
<path d="M1380 4369 c-143 -10 -240 -44 -358 -127 -138 -97 -245 -275 -267
-449 -10 -73 -4 -2443 6 -2499 38 -215 184 -401 384 -489 126 -56 76 -54 1422
-52 682 1 1239 -1 1237 -5 -3 -4 8 -1 23 7 15 8 36 15 46 15 30 0 139 50 208
96 145 96 251 260 280 434 12 74 12 2461 0 2526 -43 223 -205 419 -417 502
-72 29 -104 34 -249 39 -213 7 -2212 9 -2315 2z m2523 -108 c170 -58 300 -195
366 -381 14 -40 16 -183 18 -1295 3 -1373 6 -1310 -57 -1438 -58 -116 -144
-202 -257 -257 -128 -62 -59 -60 -1418 -59 l-1240 0 -77 23 c-181 53 -325 193
-381 370 l-22 71 0 1265 c0 1402 -5 1288 63 1430 38 78 159 196 244 237 76 37
149 58 178 50 11 -3 17 -1 14 4 -3 6 481 8 1248 7 l1253 -3 68 -24z"/>
<path d="M1837 3359 c-18 -10 -55 -82 -112 -219 -15 -36 -45 -103 -66 -148
-22 -46 -39 -85 -39 -87 0 -2 -13 -32 -29 -67 -16 -35 -44 -99 -64 -143 -19
-44 -46 -105 -60 -135 -13 -30 -39 -89 -57 -130 -18 -41 -47 -106 -65 -145
-17 -38 -40 -90 -51 -114 -82 -189 -124 -276 -131 -274 -5 1 -6 -21 -3 -49 7
-55 43 -98 81 -98 37 0 80 31 96 68 18 43 57 132 123 277 12 28 31 70 42 95
11 25 26 60 35 77 l15 33 335 0 334 0 16 -37 c8 -21 26 -63 40 -93 14 -30 49
-109 78 -175 87 -198 96 -215 126 -230 40 -21 63 -19 98 11 54 45 50 60 -109
409 -15 33 -69 155 -120 270 -51 116 -107 243 -126 283 -19 41 -34 75 -34 77
0 2 -18 43 -40 90 -22 47 -40 93 -40 101 0 8 -4 14 -10 14 -5 0 -10 8 -10 18
0 10 -3 21 -6 25 -8 8 -91 194 -105 234 -20 61 -91 92 -142 62z m98 -416 c26
-60 63 -141 81 -181 19 -41 34 -76 34 -78 0 -2 13 -33 30 -68 16 -36 36 -81
44 -100 l15 -35 -254 0 -254 0 26 57 c14 31 51 116 83 187 127 288 144 325
145 325 2 0 24 -48 50 -107z"/>
<path d="M2814 3358 c-49 -23 -48 -12 -48 -791 0 -403 3 -743 7 -757 3 -14 19
-33 36 -43 26 -15 62 -17 324 -17 162 0 319 5 348 10 152 29 288 155 333 310
12 40 16 92 15 191 -1 122 -4 142 -27 201 -33 80 -82 145 -143 189 l-46 34 30
55 c17 30 33 57 36 60 20 18 17 256 -3 321 -20 64 -83 147 -141 186 -87 59
-107 62 -416 62 -178 0 -292 -4 -305 -11z m618 -192 c65 -33 81 -74 79 -203
-1 -122 -16 -165 -71 -197 -30 -18 -55 -20 -257 -20 -124 -1 -227 2 -229 6 -4
6 -6 243 -4 399 l0 36 220 0 c206 0 224 -1 262 -21z m95 -628 c59 -33 120
-117 112 -154 -1 -5 1 -17 6 -27 4 -10 5 -73 3 -140 -5 -136 -21 -183 -78
-230 -55 -47 -103 -54 -372 -55 l-248 0 -1 51 c0 57 0 479 1 540 l0 38 273 -3
c236 -3 276 -5 304 -20z"/>
</g>
</svg>
